<svg width="29" height="29" viewBox="0 0 29 29" fill="none" xmlns="http://www.w3.org/2000/svg">
<g clip-path="url(#clip0_140_1851)">
<g opacity="0.5" clip-path="url(#clip1_140_1851)">
<path d="M7.87077 20.5131C7.1558 19.7981 6.59404 19.0132 6.18549 18.1583C5.77694 17.3034 5.51522 16.4094 5.40031 15.4764L3.27457 15.4573C2.99369 15.4573 2.74473 15.3487 2.52769 15.1317C2.31065 14.9147 2.20213 14.6657 2.20213 14.3848C2.20213 14.1039 2.31065 13.855 2.52769 13.6379C2.74473 13.4209 2.99369 13.3124 3.27457 13.3124H5.38116C5.49607 12.3804 5.76111 11.4836 6.1763 10.6221C6.59149 9.76053 7.15631 8.97203 7.87077 8.25655C9.58157 6.54575 11.6243 5.69035 13.999 5.69035C16.3737 5.69035 18.4165 6.54575 20.1273 8.25655L24.7235 12.8527C25.1448 13.2741 25.3557 13.7848 25.3562 14.3848C25.3567 14.9849 25.1458 15.4956 24.7235 15.9169L20.1273 20.5131C18.4165 22.2239 16.3737 23.0793 13.999 23.0793C11.6243 23.0793 9.58157 22.2239 7.87077 20.5131ZM9.40283 18.981C10.6796 20.2577 12.2116 20.8961 13.999 20.8961C15.7864 20.8961 17.3185 20.2577 18.5952 18.981L23.1914 14.3848L18.5952 9.78862C17.3185 8.5119 15.7864 7.87354 13.999 7.87354C12.2116 7.87354 10.6796 8.5119 9.40283 9.78862C8.90491 10.2865 8.50581 10.8388 8.20552 11.4455C7.90524 12.0522 7.70428 12.6745 7.60265 13.3124H15.5311C15.812 13.3124 16.0609 13.4209 16.278 13.6379C16.495 13.855 16.6035 14.1039 16.6035 14.3848C16.6035 14.6912 16.4981 14.9499 16.2872 15.1608C16.0762 15.3717 15.8178 15.4769 15.5119 15.4764L7.5835 15.4764C7.68564 16.1148 7.88992 16.7342 8.19633 17.3348C8.50274 17.9354 8.90491 18.4841 9.40283 18.981Z" fill="#4E5F4E"/>
</g>
</g>
<defs>
<clipPath id="clip0_140_1851">
<rect width="28.2843" height="28.2843" fill="white"/>
</clipPath>
<clipPath id="clip1_140_1851">
<rect width="26" height="26" fill="white" transform="translate(13.999 -4) rotate(45)"/>
</clipPath>
</defs>
</svg>
